<svg width="64" height="76" viewBox="0 0 64 76" fill="none" xmlns="http://www.w3.org/2000/svg">
<g clip-path="url(#clip0_116_2)">
<mask id="mask0_116_2" style="mask-type:luminance" maskUnits="userSpaceOnUse" x="0" y="0" width="402" height="76">
<path d="M0 0H401.702V76H0V0Z" fill="white"/>
</mask>
<g mask="url(#mask0_116_2)">
<path fill-rule="evenodd" clip-rule="evenodd" d="M8.03375 0C5.90307 0 3.85965 0.857874 2.35303 2.3849C0.846411 3.91192 0 5.98302 0 8.14256L0 67.8574C0 70.017 0.846411 72.0881 2.35303 73.6151C3.85965 75.1421 5.90307 76 8.03375 76H56.2383C58.369 76 60.4124 75.1421 61.9191 73.6151C63.4257 72.0881 64.2721 70.017 64.2721 67.8574V8.14256C64.2721 5.98302 63.4257 3.91192 61.9191 2.3849C60.4124 0.857874 58.369 0 56.2383 0L8.03375 0ZM5.35514 8.14256C5.35514 6.64367 6.55489 5.42767 8.03375 5.42767H10.7124V70.5744H8.03375C6.55489 70.5744 5.35514 69.3584 5.35514 67.8596V8.14256ZM39.1148 28.6414C39.2677 28.3153 39.4833 28.0233 39.7489 27.7826C40.0145 27.5418 40.3248 27.3573 40.6617 27.2396C40.9985 27.122 41.3552 27.0736 41.7107 27.0974C42.0662 27.1212 42.4135 27.2167 42.7322 27.3782C43.0509 27.5397 43.3346 27.764 43.5667 28.038C43.7987 28.312 43.9746 28.6302 44.0838 28.9739C44.1931 29.3176 44.2336 29.68 44.203 30.0398C44.1723 30.3996 44.0712 30.7495 43.9055 31.0692L35.8696 47.3564C35.7168 47.6826 35.5012 47.9746 35.2356 48.2153C34.97 48.456 34.6596 48.6406 34.3228 48.7583C33.9859 48.8759 33.6293 48.9242 33.2738 48.9005C32.9182 48.8767 32.571 48.7812 32.2523 48.6197C31.9336 48.4582 31.6499 48.2339 31.4178 47.9599C31.1857 47.6859 31.0099 47.3677 30.9006 47.024C30.7914 46.6803 30.7509 46.3179 30.7815 45.9581C30.8121 45.5983 30.9132 45.2483 31.079 44.9287L39.1148 28.6414ZM29.3439 29.9736C29.8458 30.4826 30.1278 31.1729 30.1278 31.8926C30.1278 32.6122 29.8458 33.3025 29.3439 33.8116L25.2114 38L29.3439 42.1884C29.8345 42.7001 30.1066 43.3869 30.1015 44.1003C30.0964 44.8137 29.8144 45.4964 29.3165 46.0008C28.8186 46.5051 28.1449 46.7906 27.441 46.7954C26.7371 46.8002 26.0596 46.5239 25.5551 46.0264L19.5314 39.919C19.0295 39.4099 18.7475 38.7197 18.7475 38C18.7475 37.2803 19.0295 36.5901 19.5314 36.081L25.5551 29.9736C25.8039 29.7214 26.0992 29.5213 26.4242 29.3848C26.7493 29.2483 27.0977 29.178 27.4495 29.178C27.8014 29.178 28.1498 29.2483 28.4748 29.3848C28.7998 29.5213 29.0952 29.7214 29.3439 29.9736ZM45.6405 33.8116C45.15 33.2999 44.8778 32.6131 44.8829 31.8997C44.8881 31.1863 45.1701 30.5036 45.6679 29.9992C46.1658 29.4949 46.8395 29.2094 47.5434 29.2046C48.2473 29.1998 48.9248 29.4761 49.4293 29.9736L55.4531 36.081C55.955 36.5901 56.2369 37.2803 56.2369 38C56.2369 38.7197 55.955 39.4099 55.4531 39.919L49.4293 46.0264C48.9248 46.5239 48.2473 46.8002 47.5434 46.7954C46.8395 46.7906 46.1658 46.5051 45.6679 46.0008C45.1701 45.4964 44.8881 44.8137 44.8829 44.1003C44.8778 43.3869 45.15 42.7001 45.6405 42.1884L49.773 38L45.6405 33.8116Z" fill="#062630"/>
<path d="M15.4739 25.3334H61.2977V50.6667H15.4739V25.3334Z" fill="#062630"/>
<path d="M30.5832 26.8006L24.8865 21.0013M42.5995 38.9732L36.7715 33.0663M33.4535 34.5969V46.9342M37.8338 51.3781C37.8467 51.9697 37.7428 52.5579 37.5284 53.1083C37.314 53.6587 36.9932 54.1601 36.585 54.5831C36.1768 55.0062 35.6894 55.3423 35.1513 55.5719C34.6132 55.8014 34.0352 55.9198 33.4514 55.9199C32.8676 55.92 32.2896 55.802 31.7514 55.5727C31.2132 55.3434 30.7256 55.0075 30.3172 54.5846C29.9088 54.1618 29.5878 53.6605 29.3731 53.1103C29.1584 52.56 29.0543 51.9718 29.0669 51.3802C29.0666 50.2016 29.5283 49.0712 30.3503 48.2376C31.1724 47.404 32.2875 46.9356 33.4504 46.9353C34.6132 46.935 35.7285 47.4029 36.551 48.2361C37.3734 49.0693 37.8356 50.1995 37.8359 51.3781H37.8338ZM50.1292 42.0533C50.1293 42.6368 50.0161 43.2145 49.7959 43.7536C49.5758 44.2927 49.253 44.7826 48.846 45.1952C48.0242 46.0286 46.9093 46.4969 45.7468 46.4972C44.5842 46.4975 43.4691 46.0297 42.6469 45.1967C41.8246 44.3637 41.3625 43.2338 41.3623 42.0555C41.362 40.8769 41.8237 39.7464 42.6457 38.9128C43.4678 38.0793 44.5829 37.6108 45.7457 37.6105C46.9086 37.6102 48.0239 38.0782 48.8463 38.9113C49.6688 39.7445 50.131 40.8747 50.1313 42.0533H50.1292ZM37.8338 30.1551C37.8467 30.7467 37.7428 31.3349 37.5284 31.8853C37.314 32.4357 36.9932 32.9371 36.585 33.3601C36.1768 33.7832 35.6894 34.1194 35.1513 34.3489C34.6132 34.5785 34.0352 34.6968 33.4514 34.6969C32.8676 34.6971 32.2896 34.579 31.7514 34.3497C31.2132 34.1204 30.7256 33.7845 30.3172 33.3617C29.9088 32.9388 29.5878 32.4375 29.3731 31.8873C29.1584 31.337 29.0543 30.7488 29.0669 30.1572C29.0666 28.9786 29.5283 27.8482 30.3503 27.0146C31.1724 26.181 32.2875 25.7126 33.4504 25.7123C34.6132 25.712 35.7285 26.1799 36.551 27.0131C37.3734 27.8463 37.8356 28.9765 37.8359 30.1551H37.8338Z" stroke="#FF9A60" stroke-width="1.422" stroke-linecap="round" stroke-linejoin="round"/>
</g>
</g>
<defs>
<clipPath id="clip0_116_2">
<rect width="64" height="76" fill="white"/>
</clipPath>
</defs>
</svg>
